<?xml version="1.0" encoding="utf-8"?>
<!-- Generator: Adobe Illustrator 19.0.0, SVG Export Plug-In . SVG Version: 6.00 Build 0)  -->
<svg version="1.1" id="Capa_1" xmlns="http://www.w3.org/2000/svg" xmlns:xlink="http://www.w3.org/1999/xlink" x="0px" y="0px"
	 viewBox="-113 204 385 385" style="enable-background:new -113 204 385 385;" xml:space="preserve">
<style type="text/css">
	.st0{fill:#A9A9A9;}
</style>
<g>
	<path id="Arrow_Left" class="st0" d="M268.4,388L268.4,388L268.4,388l-120-120.2c-7.6-7.9-21-1.9-20.7,8.8v59.9h-0.1H-101
		c-6.6,0-12,5.4-12,12v96.2c0,6.6,5.4,12,12,12h228.5h0.1v59.8c-0.3,10.7,13,16.6,20.6,8.9l120-120.3
		C273.1,400.5,273.1,392.8,268.4,388z M151.8,487.6v-54.9h-0.2h-12h-11.9l0,0h-0.1h-12H-88.9v-72.2h204.4h12h0.1l0,0h12h12h0.2v-55
		l90.8,91L151.8,487.6z"/>
</g>
</svg>
