<?xml version="1.0" encoding="utf-8"?>
<!-- Generator: Adobe Illustrator 19.0.0, SVG Export Plug-In . SVG Version: 6.00 Build 0)  -->
<svg version="1.1" id="Layer_1" xmlns="http://www.w3.org/2000/svg" xmlns:xlink="http://www.w3.org/1999/xlink" x="0px" y="0px"
	 viewBox="-155 246.9 300.1 300.1" style="enable-background:new -155 246.9 300.1 300.1;" xml:space="preserve">
<style type="text/css">
	.st0{fill:#A9A9A9;}
</style>
<g>
	<g>
		<g>
			<path class="st0" d="M-4.9,352c-24.8,0-45,20.2-45,45s20.2,45,45,45s45-20.2,45-45S19.8,352-4.9,352z M-4.9,425.2
				c-15.6,0-28.3-12.7-28.3-28.3s12.7-28.3,28.3-28.3s28.3,12.7,28.3,28.3S10.7,425.2-4.9,425.2z"/>
			<path class="st0" d="M142.4,430.2l-25.5-23v-20.6l25.5-23c2.6-2.4,3.5-6.1,2.1-9.4l-13.6-32.8c-1.3-3.3-4.6-5.3-8.1-5.1
				l-34.3,1.7l-14.6-14.6l1.7-34.3c0.2-3.5-1.9-6.8-5.1-8.1l-32.8-13.6c-3.3-1.3-7-0.5-9.4,2.1l-23,25.5h-20.6l-23-25.5
				c-2.4-2.6-6.1-3.5-9.4-2.1l-32.8,13.6c-3.3,1.3-5.3,4.6-5.1,8.1l1.8,34.3l-14.6,14.6l-34.3-1.7c-3.5-0.2-6.8,1.9-8.1,5.1
				l-13.6,32.8c-1.3,3.3-0.5,7,2.1,9.4l25.5,23v20.6l-25.5,23c-2.6,2.4-3.5,6.1-2.1,9.4l13.6,32.8c1.3,3.3,4.6,5.3,8.1,5.1l34.3-1.7
				l14.6,14.6l-1.8,34.3c-0.2,3.5,1.9,6.8,5.1,8.1l32.8,13.6c3.3,1.4,7,0.5,9.4-2.1l23-25.5H5.4l23,25.5c1.6,1.8,3.9,2.7,6.2,2.7
				c1.1,0,2.2-0.2,3.2-0.6l32.8-13.6c3.3-1.3,5.3-4.6,5.1-8.1l-1.7-34.3l14.6-14.6l34.3,1.7c3.5,0.2,6.8-1.9,8.1-5.1l13.6-32.8
				C145.8,436.3,145,432.6,142.4,430.2z M117.7,460.6L85.7,459c-2.4-0.1-4.6,0.8-6.3,2.4l-19.8,19.8c-1.7,1.7-2.5,4-2.4,6.3
				l1.6,32.1l-22,9.1l-21.5-23.8c-1.6-1.7-3.8-2.7-6.2-2.7h-28c-2.4,0-4.6,1-6.2,2.7l-21.5,23.8l-22-9.1l1.6-32.1
				c0.1-2.4-0.8-4.6-2.4-6.3l-19.8-19.8c-1.7-1.7-4-2.6-6.3-2.4l-32.1,1.6l-9.1-22l23.8-21.5c1.7-1.6,2.7-3.8,2.7-6.2v-28
				c0-2.4-1-4.6-2.7-6.2l-23.8-21.5l9.1-22l32.1,1.6c2.4,0.1,4.6-0.8,6.3-2.4l19.8-19.8c1.7-1.7,2.5-4,2.4-6.3l-1.6-32.1l22-9.1
				l21.5,23.8c1.6,1.7,3.8,2.7,6.2,2.7h28c2.4,0,4.6-1,6.2-2.7l21.5-23.8l22,9.1l-1.6,32.1c-0.1,2.4,0.8,4.6,2.4,6.3l19.8,19.8
				c1.7,1.7,4,2.6,6.3,2.4l32.1-1.6l9.1,22L103,376.8c-1.7,1.6-2.7,3.8-2.7,6.2v28c0,2.4,1,4.6,2.7,6.2l23.8,21.5L117.7,460.6z"/>
			<path class="st0" d="M-4.9,318.2c-43.4,0-78.7,35.3-78.7,78.7c0,43.4,35.3,78.7,78.7,78.7s78.7-35.3,78.7-78.7
				C73.8,353.5,38.4,318.2-4.9,318.2z M-4.9,459c-34.2,0-62-27.8-62-62s27.8-62,62-62s62,27.8,62,62C57.1,431.2,29.3,459-4.9,459z"
				/>
		</g>
	</g>
</g>
</svg>
