<?xml version="1.0" encoding="utf-8"?>
<!-- Generator: Adobe Illustrator 19.0.0, SVG Export Plug-In . SVG Version: 6.00 Build 0)  -->
<svg version="1.1" id="Layer_1" xmlns="http://www.w3.org/2000/svg" xmlns:xlink="http://www.w3.org/1999/xlink" x="0px" y="0px"
	 viewBox="-287 379 36 36" style="enable-background:new -287 379 36 36;" xml:space="preserve">
<style type="text/css">
	.st0{fill:#A9A9A9;}
	.st1{fill:#A9A9A9;fill-opacity:0;}
</style>
<title>help-line</title>
<path class="st0" d="M-269,381c-8.8,0-16,7.2-16,16s7.2,16,16,16s16-7.2,16-16S-260.2,381-269,381z M-269,411c-7.7,0-14-6.3-14-14
	s6.3-14,14-14s14,6.3,14,14S-261.3,411-269,411z"/>
<path class="st0" d="M-268.7,387.9c-2.2,0-4.3,0.9-5.7,2.6c-0.2,0.2-0.3,0.4-0.3,0.7c0,0.5,0.4,0.9,0.9,0.9c0,0,0,0,0,0
	c0.3,0,0.5-0.1,0.7-0.3c1.1-1.3,2.7-2,4.3-2c2.4,0,3.8,1.5,3.8,3.4v0.1c0,2.2-1.8,3.4-4.5,3.6c-0.4,0-0.8,0.4-0.8,0.8
	c0,0,0,0.1,0,0.1c0,0,0,2.3,0,2.8c0.1,0.5,0.5,0.9,1,0.9h0.1c0.5-0.1,0.9-0.5,0.9-1v-2.1c3-0.4,5.4-2,5.4-5.3v-0.1
	C-262.8,390.1-265.2,387.9-268.7,387.9z"/>
<circle class="st0" cx="-269.2" cy="405.2" r="1.3"/>
<rect x="-287" y="379" class="st1" width="36" height="36"/>
</svg>
